WixMadeforText_Rg.ufo
<glyph name="exclam" format="2">
	<unicode hex="0021"/>
	<advance width="242"/>
	<outline>
		<contour>
			<point x="147" y="204" type="line"/>
			<point x="151" y="273"/>
			<point x="167" y="656"/>
			<point x="167" y="676" type="curve" smooth="yes"/>
			<point x="167" y="711"/>
			<point x="148" y="731"/>
			<point x="121" y="731" type="curve"/>
			<point x="96" y="731"/>
			<point x="75" y="711"/>
			<point x="75" y="676" type="curve" smooth="yes"/>
			<point x="75" y="656"/>
			<point x="91" y="273"/>
			<point x="95" y="204" type="curve"/>
		</contour>
		<contour>
			<point x="121" y="-12" type="curve" smooth="yes"/>
			<point x="154" y="-12"/>
			<point x="179" y="14"/>
			<point x="179" y="47" type="curve" smooth="yes"/>
			<point x="179" y="80"/>
			<point x="154" y="106"/>
			<point x="121" y="106" type="curve" smooth="yes"/>
			<point x="88" y="106"/>
			<point x="63" y="80"/>
			<point x="63" y="47" type="curve" smooth="yes"/>
			<point x="63" y="14"/>
			<point x="88" y="-12"/>
		</contour>
	</outline>
	<guideline y="731"/>
</glyph>
<glyph name="dollar" format="2">
	<unicode hex="0024"/>
	<advance width="632"/>
	<outline>
		<contour>
			<point x="62" y="124" type="line"/>
			<point x="126" y="39"/>
			<point x="217" y="-6"/>
			<point x="322" y="-6" type="curve" smooth="yes"/>
			<point x="472" y="-6"/>
			<point x="571" y="84"/>
			<point x="571" y="202" type="curve" smooth="yes"/>
			<point x="571" y="320"/>
			<point x="499" y="376"/>
			<point x="319" y="406" type="curve" smooth="yes"/>
			<point x="205" y="425"/>
			<point x="159" y="455"/>
			<point x="159" y="527" type="curve" smooth="yes"/>
			<point x="159" y="601"/>
			<point x="224" y="653"/>
			<point x="319" y="653" type="curve" smooth="yes"/>
			<point x="389" y="653"/>
			<point x="456" y="612"/>
			<point x="502" y="541" type="curve"/>
			<point x="556" y="591" type="line"/>
			<point x="496" y="675"/>
			<point x="415" y="721"/>
			<point x="318" y="721" type="curve" smooth="yes"/>
			<point x="185" y="721"/>
			<point x="86" y="638"/>
			<point x="86" y="526" type="curve" smooth="yes"/>
			<point x="86" y="416"/>
			<point x="152" y="364"/>
			<point x="319" y="335" type="curve" smooth="yes"/>
			<point x="446" y="313"/>
			<point x="498" y="276"/>
			<point x="498" y="202" type="curve" smooth="yes"/>
			<point x="498" y="120"/>
			<point x="429" y="61"/>
			<point x="322" y="61" type="curve" smooth="yes"/>
			<point x="239" y="61"/>
			<point x="168" y="100"/>
			<point x="116" y="174" type="curve"/>
		</contour>
		<contour>
			<point x="354" y="376" type="line"/>
			<point x="354" y="831" type="line"/>
			<point x="293" y="831" type="line"/>
			<point x="293" y="376" type="line"/>
		</contour>
		<contour>
			<point x="353" y="-116" type="line"/>
			<point x="353" y="366" type="line"/>
			<point x="292" y="366" type="line"/>
			<point x="292" y="-116" type="line"/>
		</contour>
	</outline>
</glyph>
<glyph name="period" format="2">
	<unicode hex="002E"/>
	<advance width="242"/>
	<outline>
		<contour>
			<point x="121" y="-12" type="curve" smooth="yes"/>
			<point x="154" y="-12"/>
			<point x="179" y="14"/>
			<point x="179" y="47" type="curve" smooth="yes"/>
			<point x="179" y="80"/>
			<point x="154" y="106"/>
			<point x="121" y="106" type="curve" smooth="yes"/>
			<point x="88" y="106"/>
			<point x="63" y="80"/>
			<point x="63" y="47" type="curve" smooth="yes"/>
			<point x="63" y="14"/>
			<point x="88" y="-12"/>
		</contour>
	</outline>
</glyph>
<glyph name="two" format="2">
	<unicode hex="0032"/>
	<advance width="543"/>
	<outline>
		<contour>
			<point x="508" y="0" type="line"/>
			<point x="508" y="67" type="line"/>
			<point x="155" y="67" type="line"/>
			<point x="339" y="256" type="line" smooth="yes"/>
			<point x="469" y="390"/>
			<point x="504" y="450"/>
			<point x="504" y="539" type="curve" smooth="yes"/>
			<point x="504" y="653"/>
			<point x="419" y="731"/>
			<point x="296" y="731" type="curve" smooth="yes"/>
			<point x="193" y="731"/>
			<point x="112" y="685"/>
			<point x="53" y="592" type="curve"/>
			<point x="108" y="542" type="line"/>
			<point x="157" y="627"/>
			<point x="215" y="664"/>
			<point x="295" y="664" type="curve" smooth="yes"/>
			<point x="376" y="664"/>
			<point x="426" y="615"/>
			<point x="426" y="537" type="curve" smooth="yes"/>
			<point x="426" y="465"/>
			<point x="394" y="409"/>
			<point x="294" y="307" type="curve" smooth="yes"/>
			<point x="57" y="64" type="line"/>
			<point x="57" y="0" type="line"/>
		</contour>
	</outline>
	<guideline x="-5" y="0" angle="134.28"/>
	<guideline x="90" y="0" angle="134.28"/>
</glyph>
<glyph name="at" format="2">
	<unicode hex="0040"/>
	<advance width="1032"/>
	<outline>
		<contour>
			<point x="494" y="43" type="curve" smooth="yes"/>
			<point x="604" y="43"/>
			<point x="679" y="127"/>
			<point x="664" y="233" type="curve"/>
			<point x="648" y="255" type="line"/>
			<point x="644" y="169"/>
			<point x="581" y="104"/>
			<point x="500" y="104" type="curve" smooth="yes"/>
			<point x="411" y="104"/>
			<point x="365" y="175"/>
			<point x="365" y="262" type="curve" smooth="yes"/>
			<point x="365" y="347"/>
			<point x="410" y="417"/>
			<point x="499" y="417" type="curve" smooth="yes"/>
			<point x="581" y="417"/>
			<point x="638" y="350"/>
			<point x="638" y="253" type="curve"/>
			<point x="655" y="245" type="line"/>
			<point x="659" y="259"/>
			<point x="662" y="283"/>
			<point x="662" y="299" type="curve" smooth="yes"/>
			<point x="662" y="402"/>
			<point x="589" y="478"/>
			<point x="489" y="478" type="curve" smooth="yes"/>
			<point x="362" y="478"/>
			<point x="294" y="367"/>
			<point x="294" y="260" type="curve" smooth="yes"/>
			<point x="294" y="148"/>
			<point x="360" y="43"/>
		</contour>
		<contour>
			<point x="735" y="-54" type="line"/>
			<point x="690" y="-100"/>
			<point x="610" y="-128"/>
			<point x="526" y="-128" type="curve" smooth="yes"/>
			<point x="322" y="-128"/>
			<point x="161" y="44"/>
			<point x="161" y="262" type="curve" smooth="yes"/>
			<point x="161" y="494"/>
			<point x="316" y="664"/>
			<point x="529" y="664" type="curve" smooth="yes"/>
			<point x="735" y="664"/>
			<point x="878" y="507"/>
			<point x="878" y="281" type="curve" smooth="yes"/>
			<point x="878" y="172"/>
			<point x="844" y="108"/>
			<point x="787" y="108" type="curve" smooth="yes"/>
			<point x="736" y="108"/>
			<point x="706" y="144"/>
			<point x="706" y="204" type="curve" smooth="yes"/>
			<point x="706" y="464" type="line"/>
			<point x="639" y="464" type="line"/>
			<point x="639" y="340" type="line"/>
			<point x="638" y="331" type="line"/>
			<point x="638" y="188" type="line" smooth="yes"/>
			<point x="638" y="103"/>
			<point x="698" y="43"/>
			<point x="783" y="43" type="curve" smooth="yes"/>
			<point x="885" y="43"/>
			<point x="949" y="136"/>
			<point x="949" y="285" type="curve" smooth="yes"/>
			<point x="949" y="546"/>
			<point x="773" y="731"/>
			<point x="524" y="731" type="curve" smooth="yes"/>
			<point x="276" y="731"/>
			<point x="88" y="529"/>
			<point x="88" y="262" type="curve" smooth="yes"/>
			<point x="88" y="3"/>
			<point x="277" y="-194"/>
			<point x="525" y="-194" type="curve" smooth="yes"/>
			<point x="627" y="-194"/>
			<point x="723" y="-161"/>
			<point x="781" y="-106" type="curve"/>
		</contour>
	</outline>
</glyph>
<glyph name="B" format="2">
	<unicode hex="0042"/>
	<advance width="677"/>
	<outline>
		<contour>
			<point x="106" y="0" type="line"/>
			<point x="389" y="0" type="line" smooth="yes"/>
			<point x="523" y="0"/>
			<point x="613" y="80"/>
			<point x="613" y="201" type="curve" smooth="yes"/>
			<point x="613" y="320"/>
			<point x="525" y="397"/>
			<point x="389" y="397" type="curve" smooth="yes"/>
			<point x="195" y="397" type="line"/>
			<point x="195" y="349" type="line"/>
			<point x="369" y="349" type="line" smooth="yes"/>
			<point x="497" y="349"/>
			<point x="583" y="420"/>
			<point x="583" y="526" type="curve" smooth="yes"/>
			<point x="583" y="639"/>
			<point x="497" y="715"/>
			<point x="369" y="715" type="curve" smooth="yes"/>
			<point x="106" y="715" type="line"/>
		</contour>
		<contour>
			<point x="186" y="70" type="line"/>
			<point x="186" y="645" type="line"/>
			<point x="368" y="645" type="line" smooth="yes"/>
			<point x="451" y="645"/>
			<point x="502" y="598"/>
			<point x="502" y="525" type="curve" smooth="yes"/>
			<point x="502" y="449"/>
			<point x="452" y="403"/>
			<point x="368" y="403" type="curve" smooth="yes"/>
			<point x="176" y="403" type="line"/>
			<point x="176" y="333" type="line"/>
			<point x="389" y="333" type="line" smooth="yes"/>
			<point x="477" y="333"/>
			<point x="531" y="283"/>
			<point x="531" y="202" type="curve" smooth="yes"/>
			<point x="531" y="120"/>
			<point x="477" y="70"/>
			<point x="389" y="70" type="curve" smooth="yes"/>
		</contour>
	</outline>
</glyph>
<glyph name="K" format="2">
	<unicode hex="004B"/>
	<advance width="687"/>
	<outline>
		<contour>
			<point x="186" y="0" type="line"/>
			<point x="186" y="715" type="line"/>
			<point x="106" y="715" type="line"/>
			<point x="106" y="0" type="line"/>
		</contour>
		<contour>
			<point x="655" y="0" type="line"/>
			<point x="261" y="384" type="line"/>
			<point x="261" y="358" type="line"/>
			<point x="616" y="715" type="line"/>
			<point x="510" y="715" type="line"/>
			<point x="177" y="371" type="line"/>
			<point x="163" y="371" type="line"/>
			<point x="536" y="0" type="line"/>
		</contour>
	</outline>
	<anchor name="bottom.UC" x="348" y="-50"/>
	<anchor name="top.UC" x="348" y="750"/>
</glyph>
<glyph name="M" format="2">
	<unicode hex="004D"/>
	<advance width="905"/>
	<outline>
		<contour>
			<point x="481" y="61" type="line"/>
			<point x="751" y="662" type="line"/>
			<point x="721" y="662" type="line"/>
			<point x="721" y="0" type="line"/>
			<point x="799" y="0" type="line"/>
			<point x="799" y="715" type="line"/>
			<point x="698" y="715" type="line"/>
			<point x="429" y="110" type="line"/>
			<point x="475" y="110" type="line"/>
			<point x="208" y="715" type="line"/>
			<point x="106" y="715" type="line"/>
			<point x="106" y="0" type="line"/>
			<point x="184" y="0" type="line"/>
			<point x="184" y="662" type="line"/>
			<point x="154" y="662" type="line"/>
			<point x="422" y="61" type="line"/>
		</contour>
	</outline>
</glyph>
<glyph name="bracketleft" format="2">
	<unicode hex="005B"/>
	<advance width="309"/>
	<outline>
		<contour>
			<point x="276" y="-129" type="line"/>
			<point x="276" y="-65" type="line"/>
			<point x="162" y="-65" type="line"/>
			<point x="162" y="667" type="line"/>
			<point x="276" y="667" type="line"/>
			<point x="276" y="731" type="line"/>
			<point x="85" y="731" type="line"/>
			<point x="85" y="-129" type="line"/>
		</contour>
	</outline>
</glyph>
<glyph name="asciicircum" format="2">
	<unicode hex="005E"/>
	<advance width="632"/>
	<outline>
		<contour>
			<point x="291" y="715" type="line"/>
			<point x="456" y="354" type="line"/>
			<point x="532" y="354" type="line"/>
			<point x="360" y="715" type="line"/>
		</contour>
		<contour>
			<point x="272" y="715" type="line"/>
			<point x="100" y="354" type="line"/>
			<point x="172" y="354" type="line"/>
			<point x="338" y="715" type="line"/>
		</contour>
	</outline>
</glyph>
<glyph name="underscore" format="2">
	<unicode hex="005F"/>
	<advance width="469"/>
	<outline>
		<contour>
			<point x="469" y="-129" type="line"/>
			<point x="469" y="-65" type="line"/>
			<point x="0" y="-65" type="line"/>
			<point x="0" y="-129" type="line"/>
		</contour>
	</outline>
</glyph>
<glyph name="g" format="2">
	<unicode hex="0067"/>
	<advance width="628"/>
	<outline>
		<contour>
			<point x="543" y="43" type="curve"/>
			<point x="543" y="492" type="line"/>
			<point x="467" y="492" type="line"/>
			<point x="467" y="343" type="line"/>
			<point x="486" y="343" type="line"/>
			<point x="470" y="444"/>
			<point x="394" y="508"/>
			<point x="289" y="508" type="curve" smooth="yes"/>
			<point x="155" y="508"/>
			<point x="54" y="396"/>
			<point x="54" y="250" type="curve" smooth="yes"/>
			<point x="54" y="101"/>
			<point x="153" y="-6"/>
			<point x="292" y="-6" type="curve" smooth="yes"/>
			<point x="418" y="-6"/>
			<point x="504" y="84"/>
			<point x="491" y="203" type="curve"/>
			<point x="475" y="223" type="line"/>
			<point x="467" y="130"/>
			<point x="394" y="61"/>
			<point x="303" y="61" type="curve" smooth="yes"/>
			<point x="204" y="61"/>
			<point x="135" y="138"/>
			<point x="135" y="250" type="curve" smooth="yes"/>
			<point x="135" y="361"/>
			<point x="204" y="441"/>
			<point x="300" y="441" type="curve" smooth="yes"/>
			<point x="398" y="441"/>
			<point x="466" y="355"/>
			<point x="466" y="232" type="curve" smooth="yes"/>
			<point x="466" y="43" type="line" smooth="yes"/>
			<point x="466" y="-68"/>
			<point x="397" y="-143"/>
			<point x="297" y="-143" type="curve" smooth="yes"/>
			<point x="231" y="-143"/>
			<point x="180" y="-117"/>
			<point x="141" y="-64" type="curve"/>
			<point x="90" y="-116" type="line"/>
			<point x="139" y="-176"/>
			<point x="213" y="-210"/>
			<point x="298" y="-210" type="curve" smooth="yes"/>
			<point x="440" y="-210"/>
			<point x="543" y="-103"/>
		</contour>
	</outline>
	<anchor name="top.LC" x="291" y="544"/>
</glyph>
<glyph name="j" format="2">
	<unicode hex="006A"/>
	<advance width="247"/>
	<outline>
		<contour>
			<point x="-3" y="-194" type="line"/>
			<point x="47" y="-194" type="line" smooth="yes"/>
			<point x="125" y="-194"/>
			<point x="162" y="-155"/>
			<point x="162" y="-74" type="curve" smooth="yes"/>
			<point x="162" y="492" type="line"/>
			<point x="85" y="492" type="line"/>
			<point x="85" y="-67" type="line" smooth="yes"/>
			<point x="85" y="-111"/>
			<point x="68" y="-130"/>
			<point x="28" y="-130" type="curve" smooth="yes"/>
			<point x="-3" y="-130" type="line"/>
		</contour>
		<contour>
			<point x="177" y="678" type="curve" smooth="yes"/>
			<point x="177" y="710"/>
			<point x="154" y="733"/>
			<point x="123" y="733" type="curve" smooth="yes"/>
			<point x="92" y="733"/>
			<point x="69" y="710"/>
			<point x="69" y="678" type="curve" smooth="yes"/>
			<point x="69" y="646"/>
			<point x="92" y="623"/>
			<point x="123" y="623" type="curve" smooth="yes"/>
			<point x="154" y="623"/>
			<point x="177" y="646"/>
		</contour>
	</outline>
</glyph>
<glyph name="o" format="2">
	<unicode hex="006F"/>
	<advance width="601"/>
	<outline>
		<contour>
			<point x="300" y="-16" type="curve" smooth="yes"/>
			<point x="444" y="-16"/>
			<point x="547" y="94"/>
			<point x="547" y="246" type="curve" smooth="yes"/>
			<point x="547" y="398"/>
			<point x="444" y="508"/>
			<point x="300" y="508" type="curve" smooth="yes"/>
			<point x="157" y="508"/>
			<point x="54" y="398"/>
			<point x="54" y="246" type="curve" smooth="yes"/>
			<point x="54" y="94"/>
			<point x="157" y="-16"/>
		</contour>
		<contour>
			<point x="300" y="51" type="curve" smooth="yes"/>
			<point x="202" y="51"/>
			<point x="135" y="132"/>
			<point x="135" y="246" type="curve" smooth="yes"/>
			<point x="135" y="361"/>
			<point x="202" y="441"/>
			<point x="300" y="441" type="curve" smooth="yes"/>
			<point x="399" y="441"/>
			<point x="466" y="361"/>
			<point x="466" y="246" type="curve" smooth="yes"/>
			<point x="466" y="132"/>
			<point x="399" y="51"/>
		</contour>
	</outline>
	<anchor name="bottom.LC" x="300" y="-50"/>
	<anchor name="top.LC" x="300" y="544"/>
</glyph>
<glyph name="w" format="2">
	<unicode hex="0077"/>
	<advance width="768"/>
	<outline>
		<contour>
			<point x="582" y="0" type="line"/>
			<point x="730" y="492" type="line"/>
			<point x="654" y="492" type="line"/>
			<point x="526" y="31" type="line"/>
			<point x="553" y="31" type="line"/>
			<point x="423" y="492" type="line"/>
			<point x="345" y="492" type="line"/>
			<point x="214" y="31" type="line"/>
			<point x="243" y="31" type="line"/>
			<point x="117" y="492" type="line"/>
			<point x="38" y="492" type="line"/>
			<point x="184" y="0" type="line"/>
			<point x="271" y="0" type="line"/>
			<point x="392" y="427" type="line"/>
			<point x="374" y="427" type="line"/>
			<point x="496" y="0" type="line"/>
		</contour>
	</outline>
	<anchor name="top.LC" x="384" y="544"/>
</glyph>
<glyph name="currency" format="2">
	<unicode hex="00A4"/>
	<advance width="628"/>
	<outline>
		<contour>
			<point x="314" y="220" type="curve" smooth="yes"/>
			<point x="229" y="220"/>
			<point x="165" y="286"/>
			<point x="165" y="376" type="curve" smooth="yes"/>
			<point x="165" y="466"/>
			<point x="229" y="532"/>
			<point x="314" y="532" type="curve" smooth="yes"/>
			<point x="399" y="532"/>
			<point x="463" y="466"/>
			<point x="463" y="376" type="curve" smooth="yes"/>
			<point x="463" y="286"/>
			<point x="399" y="220"/>
		</contour>
		<contour>
			<point x="314" y="161" type="curve" smooth="yes"/>
			<point x="363" y="161"/>
			<point x="408" y="177"/>
			<point x="444" y="204" type="curve"/>
			<point x="518" y="130" type="line"/>
			<point x="560" y="172" type="line"/>
			<point x="486" y="246" type="line"/>
			<point x="512" y="282"/>
			<point x="528" y="327"/>
			<point x="528" y="376" type="curve" smooth="yes"/>
			<point x="528" y="425"/>
			<point x="512" y="470"/>
			<point x="486" y="506" type="curve"/>
			<point x="560" y="580" type="line"/>
			<point x="518" y="622" type="line"/>
			<point x="444" y="548" type="line"/>
			<point x="408" y="575"/>
			<point x="363" y="591"/>
			<point x="314" y="591" type="curve" smooth="yes"/>
			<point x="265" y="591"/>
			<point x="220" y="575"/>
			<point x="184" y="548" type="curve"/>
			<point x="110" y="622" type="line"/>
			<point x="68" y="580" type="line"/>
			<point x="142" y="506" type="line"/>
			<point x="116" y="470"/>
			<point x="100" y="425"/>
			<point x="100" y="376" type="curve" smooth="yes"/>
			<point x="100" y="327"/>
			<point x="116" y="282"/>
			<point x="142" y="246" type="curve"/>
			<point x="68" y="172" type="line"/>
			<point x="110" y="130" type="line"/>
			<point x="184" y="204" type="line"/>
			<point x="220" y="177"/>
			<point x="265" y="161"/>
		</contour>
	</outline>
</glyph>
<glyph name="yen" format="2">
	<unicode hex="00A5"/>
	<advance width="632"/>
	<outline>
		<contour>
			<point x="514" y="113" type="line"/>
			<point x="514" y="179" type="line"/>
			<point x="118" y="179" type="line"/>
			<point x="118" y="113" type="line"/>
		</contour>
		<contour>
			<point x="514" y="273" type="line"/>
			<point x="514" y="339" type="line"/>
			<point x="118" y="339" type="line"/>
			<point x="118" y="273" type="line"/>
		</contour>
		<contour>
			<point x="356" y="0" type="line"/>
			<point x="356" y="312" type="line"/>
			<point x="605" y="715" type="line"/>
			<point x="518" y="715" type="line"/>
			<point x="307" y="358" type="line"/>
			<point x="329" y="358" type="line"/>
			<point x="119" y="715" type="line"/>
			<point x="26" y="715" type="line"/>
			<point x="276" y="314" type="line"/>
			<point x="276" y="0" type="line"/>
		</contour>
	</outline>
</glyph>
<glyph name="copyright" format="2">
	<unicode hex="00A9"/>
	<advance width="848"/>
	<outline>
		<contour>
			<point x="539" y="265" type="line"/>
			<point x="514" y="225"/>
			<point x="476" y="201"/>
			<point x="428" y="201" type="curve" smooth="yes"/>
			<point x="352" y="201"/>
			<point x="294" y="268"/>
			<point x="294" y="358" type="curve" smooth="yes"/>
			<point x="294" y="450"/>
			<point x="352" y="516"/>
			<point x="428" y="516" type="curve" smooth="yes"/>
			<point x="476" y="516"/>
			<point x="514" y="492"/>
			<point x="539" y="453" type="curve"/>
			<point x="582" y="495" type="line"/>
			<point x="548" y="542"/>
			<point x="494" y="572"/>
			<point x="427" y="572" type="curve" smooth="yes"/>
			<point x="312" y="572"/>
			<point x="227" y="482"/>
			<point x="227" y="358" type="curve" smooth="yes"/>
			<point x="227" y="236"/>
			<point x="310" y="145"/>
			<point x="425" y="145" type="curve" smooth="yes"/>
			<point x="492" y="145"/>
			<point x="548" y="175"/>
			<point x="582" y="222" type="curve"/>
		</contour>
		<contour>
			<point x="424" y="-26" type="curve" smooth="yes"/>
			<point x="636" y="-26"/>
			<point x="805" y="145"/>
			<point x="805" y="358" type="curve" smooth="yes"/>
			<point x="805" y="571"/>
			<point x="636" y="742"/>
			<point x="424" y="742" type="curve" smooth="yes"/>
			<point x="212" y="742"/>
			<point x="43" y="571"/>
			<point x="43" y="358" type="curve" smooth="yes"/>
			<point x="43" y="145"/>
			<point x="212" y="-26"/>
		</contour>
		<contour>
			<point x="424" y="37" type="curve" smooth="yes"/>
			<point x="248" y="37"/>
			<point x="107" y="179"/>
			<point x="107" y="358" type="curve" smooth="yes"/>
			<point x="107" y="537"/>
			<point x="248" y="679"/>
			<point x="424" y="679" type="curve" smooth="yes"/>
			<point x="600" y="679"/>
			<point x="741" y="537"/>
			<point x="741" y="358" type="curve" smooth="yes"/>
			<point x="741" y="179"/>
			<point x="600" y="37"/>
		</contour>
	</outline>
</glyph>
<glyph name="ordfeminine" format="2">
	<unicode hex="00AA"/>
	<advance width="419"/>
	<outline>
		<contour>
			<point x="368" y="316" type="line"/>
			<point x="368" y="559" type="line" smooth="yes"/>
			<point x="368" y="654"/>
			<point x="300" y="715"/>
			<point x="200" y="715" type="curve" smooth="yes"/>
			<point x="136" y="715"/>
			<point x="83" y="688"/>
			<point x="43" y="644" type="curve"/>
			<point x="86" y="600" type="line"/>
			<point x="114" y="637"/>
			<point x="152" y="659"/>
			<point x="198" y="659" type="curve" smooth="yes"/>
			<point x="262" y="659"/>
			<point x="302" y="619"/>
			<point x="302" y="557" type="curve" smooth="yes"/>
			<point x="302" y="412" type="line"/>
			<point x="304" y="392" type="line"/>
			<point x="304" y="316" type="line"/>
		</contour>
		<contour>
			<point x="170" y="304" type="curve" smooth="yes"/>
			<point x="266" y="304"/>
			<point x="334" y="372"/>
			<point x="334" y="466" type="curve"/>
			<point x="311" y="480" type="line"/>
			<point x="306" y="408"/>
			<point x="253" y="358"/>
			<point x="183" y="358" type="curve" smooth="yes"/>
			<point x="134" y="358"/>
			<point x="102" y="385"/>
			<point x="102" y="429" type="curve" smooth="yes"/>
			<point x="102" y="480"/>
			<point x="146" y="504"/>
			<point x="207" y="504" type="curve" smooth="yes"/>
			<point x="310" y="504" type="line"/>
			<point x="310" y="555" type="line"/>
			<point x="199" y="555" type="line" smooth="yes"/>
			<point x="100" y="555"/>
			<point x="31" y="508"/>
			<point x="31" y="427" type="curve" smooth="yes"/>
			<point x="31" y="356"/>
			<point x="88" y="304"/>
		</contour>
	</outline>
</glyph>
<glyph name="Hbar" format="2">
	<unicode hex="0126"/>
	<advance width="754"/>
	<outline>
		<contour>
			<point x="712" y="527" type="line"/>
			<point x="712" y="595" type="line"/>
			<point x="41" y="595" type="line"/>
			<point x="41" y="527" type="line"/>
		</contour>
		<contour>
			<point x="568" y="0" type="line"/>
			<point x="648" y="0" type="line"/>
			<point x="648" y="715" type="line"/>
			<point x="568" y="715" type="line"/>
		</contour>
		<contour>
			<point x="186" y="0" type="line"/>
			<point x="186" y="715" type="line"/>
			<point x="106" y="715" type="line"/>
			<point x="106" y="0" type="line"/>
		</contour>
		<contour>
			<point x="176" y="336" type="line"/>
			<point x="577" y="336" type="line"/>
			<point x="577" y="407" type="line"/>
			<point x="176" y="407" type="line"/>
		</contour>
	</outline>
</glyph>
<glyph name="kgreenlandic" format="2">
	<unicode hex="0138"/>
	<advance width="539"/>
	<outline>
		<contour>
			<point x="162" y="0" type="line"/>
			<point x="162" y="492" type="line"/>
			<point x="85" y="492" type="line"/>
			<point x="85" y="0" type="line"/>
		</contour>
		<contour>
			<point x="529" y="0" type="line"/>
			<point x="234" y="264" type="line"/>
			<point x="234" y="246" type="line"/>
			<point x="502" y="492" type="line"/>
			<point x="399" y="492" type="line"/>
			<point x="147" y="255" type="line"/>
			<point x="137" y="255" type="line"/>
			<point x="418" y="0" type="line"/>
		</contour>
	</outline>
</glyph>
<glyph name="dieresiscomb" format="2">
	<unicode hex="0308"/>
	<outline>
		<contour>
			<point x="96" y="624" type="curve" smooth="yes"/>
			<point x="126" y="624"/>
			<point x="149" y="648"/>
			<point x="149" y="677" type="curve" smooth="yes"/>
			<point x="149" y="707"/>
			<point x="126" y="731"/>
			<point x="96" y="731" type="curve" smooth="yes"/>
			<point x="67" y="731"/>
			<point x="43" y="707"/>
			<point x="43" y="677" type="curve" smooth="yes"/>
			<point x="43" y="648"/>
			<point x="67" y="624"/>
		</contour>
		<contour>
			<point x="-95" y="624" type="curve" smooth="yes"/>
			<point x="-66" y="624"/>
			<point x="-42" y="648"/>
			<point x="-42" y="677" type="curve" smooth="yes"/>
			<point x="-42" y="707"/>
			<point x="-66" y="731"/>
			<point x="-95" y="731" type="curve" smooth="yes"/>
			<point x="-125" y="731"/>
			<point x="-148" y="707"/>
			<point x="-148" y="677" type="curve" smooth="yes"/>
			<point x="-148" y="648"/>
			<point x="-125" y="624"/>
		</contour>
	</outline>
	<anchor name="_top.LC" x="0" y="544"/>
</glyph>
<glyph name="caroncomb" format="2">
	<unicode hex="030C"/>
	<outline>
		<contour>
			<point x="-151" y="761" type="line"/>
			<point x="-35" y="587" type="line"/>
			<point x="34" y="587" type="line"/>
			<point x="150" y="761" type="line"/>
			<point x="83" y="761" type="line"/>
			<point x="-31" y="603" type="line"/>
			<point x="33" y="603" type="line"/>
			<point x="-81" y="761" type="line"/>
		</contour>
	</outline>
	<anchor name="_top.LC" x="0" y="544"/>
</glyph>
<glyph name="Nje" format="2">
	<unicode hex="040A"/>
	<advance width="1089"/>
	<outline>
		<contour>
			<point x="106" y="0" type="line"/>
			<point x="186" y="0" type="line"/>
			<point x="186" y="715" type="line"/>
			<point x="106" y="715" type="line"/>
		</contour>
		<contour>
			<point x="168" y="336" type="line"/>
			<point x="569" y="336" type="line"/>
			<point x="569" y="407" type="line"/>
			<point x="168" y="407" type="line"/>
		</contour>
		<contour>
			<point x="543" y="0" type="line"/>
			<point x="814" y="0" type="line" smooth="yes"/>
			<point x="949" y="0"/>
			<point x="1038" y="81"/>
			<point x="1038" y="203" type="curve" smooth="yes"/>
			<point x="1038" y="327"/>
			<point x="950" y="407"/>
			<point x="814" y="407" type="curve" smooth="yes"/>
			<point x="581" y="407" type="line"/>
			<point x="581" y="337" type="line"/>
			<point x="814" y="337" type="line" smooth="yes"/>
			<point x="902" y="337"/>
			<point x="956" y="286"/>
			<point x="956" y="203" type="curve" smooth="yes"/>
			<point x="956" y="121"/>
			<point x="902" y="70"/>
			<point x="814" y="70" type="curve" smooth="yes"/>
			<point x="577" y="70" type="line"/>
			<point x="623" y="25" type="line"/>
			<point x="623" y="715" type="line"/>
			<point x="543" y="715" type="line"/>
		</contour>
	</outline>
</glyph>
<glyph name="Icyr" format="2">
	<unicode hex="0418"/>
	<advance width="752"/>
	<outline>
		<contour>
			<point x="106" y="0" type="line"/>
			<point x="191" y="0" type="line"/>
			<point x="607" y="661" type="line"/>
			<point x="566" y="661" type="line"/>
			<point x="566" y="0" type="line"/>
			<point x="646" y="0" type="line"/>
			<point x="646" y="715" type="line"/>
			<point x="558" y="715" type="line"/>
			<point x="139" y="49" type="line"/>
			<point x="186" y="49" type="line"/>
			<point x="186" y="715" type="line"/>
			<point x="106" y="715" type="line"/>
		</contour>
	</outline>
	<anchor name="top.UC" x="381" y="750"/>
</glyph>
<glyph name="Che" format="2">
	<unicode hex="0427"/>
	<advance width="659"/>
	<outline>
		<contour>
			<point x="473" y="0" type="line"/>
			<point x="553" y="0" type="line"/>
			<point x="553" y="715" type="line"/>
			<point x="473" y="715" type="line"/>
		</contour>
		<contour>
			<point x="298" y="267" type="curve" smooth="yes"/>
			<point x="389" y="267"/>
			<point x="463" y="294"/>
			<point x="522" y="349" type="curve"/>
			<point x="492" y="403" type="line"/>
			<point x="444" y="363"/>
			<point x="372" y="339"/>
			<point x="303" y="339" type="curve" smooth="yes"/>
			<point x="200" y="339"/>
			<point x="141" y="397"/>
			<point x="141" y="497" type="curve" smooth="yes"/>
			<point x="141" y="715" type="line"/>
			<point x="61" y="715" type="line"/>
			<point x="61" y="489" type="line" smooth="yes"/>
			<point x="61" y="346"/>
			<point x="146" y="267"/>
		</contour>
	</outline>
</glyph>
<glyph name="Ecyr" format="2">
	<unicode hex="042D"/>
	<advance width="717"/>
	<outline>
		<contour>
			<point x="321" y="-16" type="curve" smooth="yes"/>
			<point x="515" y="-16"/>
			<point x="652" y="128"/>
			<point x="652" y="357" type="curve" smooth="yes"/>
			<point x="652" y="585"/>
			<point x="511" y="731"/>
			<point x="315" y="731" type="curve" smooth="yes"/>
			<point x="206" y="731"/>
			<point x="106" y="683"/>
			<point x="46" y="596" type="curve"/>
			<point x="102" y="539" type="line"/>
			<point x="151" y="618"/>
			<point x="227" y="659"/>
			<point x="319" y="659" type="curve" smooth="yes"/>
			<point x="467" y="659"/>
			<point x="572" y="545"/>
			<point x="572" y="357" type="curve" smooth="yes"/>
			<point x="572" y="170"/>
			<point x="467" y="56"/>
			<point x="319" y="56" type="curve" smooth="yes"/>
			<point x="230" y="56"/>
			<point x="152" y="98"/>
			<point x="102" y="175" type="curve"/>
			<point x="46" y="120" type="line"/>
			<point x="105" y="35"/>
			<point x="212" y="-16"/>
		</contour>
		<contour>
			<point x="175" y="336" type="line"/>
			<point x="609" y="336" type="line"/>
			<point x="609" y="407" type="line"/>
			<point x="175" y="407" type="line"/>
		</contour>
	</outline>
</glyph>
<glyph name="el" format="2">
	<unicode hex="043B"/>
	<advance width="578"/>
	<outline>
		<contour>
			<point x="40" y="0" type="line"/>
			<point x="90" y="0" type="line" smooth="yes"/>
			<point x="163" y="0"/>
			<point x="196" y="32"/>
			<point x="204" y="121" type="curve" smooth="yes"/>
			<point x="232" y="439" type="line"/>
			<point x="219" y="427" type="line"/>
			<point x="428" y="427" type="line"/>
			<point x="416" y="439" type="line"/>
			<point x="416" y="0" type="line"/>
			<point x="493" y="0" type="line"/>
			<point x="493" y="492" type="line"/>
			<point x="160" y="492" type="line"/>
			<point x="131" y="132" type="line" smooth="yes"/>
			<point x="127" y="82"/>
			<point x="111" y="66"/>
			<point x="81" y="66" type="curve" smooth="yes"/>
			<point x="40" y="66" type="line"/>
		</contour>
	</outline>
</glyph>
<glyph name="em" format="2">
	<unicode hex="043C"/>
	<advance width="700"/>
	<outline>
		<contour>
			<point x="85" y="0" type="line"/>
			<point x="159" y="0" type="line"/>
			<point x="159" y="386" type="line"/>
			<point x="149" y="385" type="line"/>
			<point x="313" y="45" type="line"/>
			<point x="380" y="45" type="line"/>
			<point x="549" y="393" type="line"/>
			<point x="539" y="395" type="line"/>
			<point x="539" y="0" type="line"/>
			<point x="615" y="0" type="line"/>
			<point x="615" y="492" type="line"/>
			<point x="523" y="492" type="line"/>
			<point x="337" y="108" type="line"/>
			<point x="359" y="108" type="line"/>
			<point x="173" y="492" type="line"/>
			<point x="85" y="492" type="line"/>
		</contour>
	</outline>
</glyph>
<glyph name="en" format="2">
	<unicode hex="043D"/>
	<advance width="591"/>
	<outline>
		<contour>
			<point x="85" y="0" type="line"/>
			<point x="162" y="0" type="line"/>
			<point x="162" y="492" type="line"/>
			<point x="85" y="492" type="line"/>
		</contour>
		<contour>
			<point x="429" y="0" type="line"/>
			<point x="506" y="0" type="line"/>
			<point x="506" y="492" type="line"/>
			<point x="429" y="492" type="line"/>
		</contour>
		<contour>
			<point x="119" y="226" type="line"/>
			<point x="475" y="226" type="line"/>
			<point x="475" y="291" type="line"/>
			<point x="119" y="291" type="line"/>
		</contour>
	</outline>
</glyph>
<glyph name="pe" format="2">
	<unicode hex="043F"/>
	<advance width="582"/>
	<outline>
		<contour>
			<point x="85" y="0" type="line"/>
			<point x="162" y="0" type="line"/>
			<point x="162" y="449" type="line"/>
			<point x="141" y="427" type="line"/>
			<point x="442" y="427" type="line"/>
			<point x="420" y="449" type="line"/>
			<point x="420" y="0" type="line"/>
			<point x="497" y="0" type="line"/>
			<point x="497" y="492" type="line"/>
			<point x="85" y="492" type="line"/>
		</contour>
	</outline>
</glyph>
<glyph name="ef" format="2">
	<unicode hex="0444"/>
	<advance width="739"/>
	<outline>
		<contour>
			<point x="331" y="-204" type="line"/>
			<point x="408" y="-204" type="line"/>
			<point x="408" y="9" type="line"/>
			<point x="407" y="23" type="line"/>
			<point x="407" y="461" type="line"/>
			<point x="408" y="476" type="line"/>
			<point x="408" y="720" type="line"/>
			<point x="331" y="720" type="line"/>
			<point x="331" y="476" type="line"/>
			<point x="332" y="461" type="line"/>
			<point x="332" y="23" type="line"/>
			<point x="331" y="9" type="line"/>
		</contour>
		<contour>
			<point x="359" y="-16" type="curve" smooth="yes"/>
			<point x="380" y="-16" type="line" smooth="yes"/>
			<point x="567" y="-16"/>
			<point x="685" y="85"/>
			<point x="685" y="246" type="curve" smooth="yes"/>
			<point x="685" y="407"/>
			<point x="567" y="508"/>
			<point x="380" y="508" type="curve" smooth="yes"/>
			<point x="359" y="508" type="line" smooth="yes"/>
			<point x="171" y="508"/>
			<point x="54" y="407"/>
			<point x="54" y="246" type="curve" smooth="yes"/>
			<point x="54" y="85"/>
			<point x="171" y="-16"/>
		</contour>
		<contour>
			<point x="359" y="51" type="line" smooth="yes"/>
			<point x="209" y="51"/>
			<point x="135" y="116"/>
			<point x="135" y="246" type="curve" smooth="yes"/>
			<point x="135" y="376"/>
			<point x="209" y="441"/>
			<point x="359" y="441" type="curve" smooth="yes"/>
			<point x="380" y="441" type="line" smooth="yes"/>
			<point x="529" y="441"/>
			<point x="604" y="375"/>
			<point x="604" y="246" type="curve" smooth="yes"/>
			<point x="604" y="116"/>
			<point x="530" y="51"/>
			<point x="380" y="51" type="curve" smooth="yes"/>
		</contour>
	</outline>
</glyph>
<glyph name="sha" format="2">
	<unicode hex="0448"/>
	<advance width="807"/>
	<outline>
		<contour>
			<point x="85" y="0" type="line"/>
			<point x="722" y="0" type="line"/>
			<point x="722" y="492" type="line"/>
			<point x="645" y="492" type="line"/>
			<point x="645" y="21" type="line"/>
			<point x="664" y="65" type="line"/>
			<point x="423" y="65" type="line"/>
			<point x="442" y="21" type="line"/>
			<point x="442" y="492" type="line"/>
			<point x="365" y="492" type="line"/>
			<point x="365" y="21" type="line"/>
			<point x="384" y="65" type="line"/>
			<point x="143" y="65" type="line"/>
			<point x="162" y="21" type="line"/>
			<point x="162" y="492" type="line"/>
			<point x="85" y="492" type="line"/>
		</contour>
	</outline>
</glyph>
<glyph name="hard" format="2">
	<unicode hex="044A"/>
	<advance width="559"/>
	<outline>
		<contour>
			<point x="148" y="0" type="line"/>
			<point x="371" y="0" type="line" smooth="yes"/>
			<point x="471" y="0"/>
			<point x="544" y="66"/>
			<point x="544" y="155" type="curve" smooth="yes"/>
			<point x="544" y="249"/>
			<point x="476" y="309"/>
			<point x="371" y="309" type="curve" smooth="yes"/>
			<point x="200" y="309" type="line"/>
			<point x="200" y="244" type="line"/>
			<point x="371" y="244" type="line" smooth="yes"/>
			<point x="429" y="244"/>
			<point x="465" y="210"/>
			<point x="465" y="155" type="curve" smooth="yes"/>
			<point x="465" y="99"/>
			<point x="429" y="65"/>
			<point x="371" y="65" type="curve" smooth="yes"/>
			<point x="213" y="65" type="line"/>
			<point x="225" y="53" type="line"/>
			<point x="225" y="492" type="line"/>
			<point x="40" y="492" type="line"/>
			<point x="40" y="427" type="line"/>
			<point x="160" y="427" type="line"/>
			<point x="148" y="439" type="line"/>
		</contour>
	</outline>
</glyph>
<glyph name="yu" format="2">
	<unicode hex="044E"/>
	<advance width="788"/>
	<outline>
		<contour>
			<point x="85" y="0" type="line"/>
			<point x="162" y="0" type="line"/>
			<point x="162" y="492" type="line"/>
			<point x="85" y="492" type="line"/>
		</contour>
		<contour>
			<point x="119" y="226" type="line"/>
			<point x="317" y="226" type="line"/>
			<point x="317" y="291" type="line"/>
			<point x="119" y="291" type="line"/>
		</contour>
		<contour>
			<point x="495" y="-16" type="curve" smooth="yes"/>
			<point x="638" y="-16"/>
			<point x="734" y="90"/>
			<point x="734" y="246" type="curve" smooth="yes"/>
			<point x="734" y="402"/>
			<point x="638" y="508"/>
			<point x="495" y="508" type="curve" smooth="yes"/>
			<point x="351" y="508"/>
			<point x="254" y="402"/>
			<point x="254" y="246" type="curve" smooth="yes"/>
			<point x="254" y="90"/>
			<point x="351" y="-16"/>
		</contour>
		<contour>
			<point x="495" y="51" type="curve" smooth="yes"/>
			<point x="399" y="51"/>
			<point x="333" y="131"/>
			<point x="333" y="246" type="curve" smooth="yes"/>
			<point x="333" y="361"/>
			<point x="399" y="441"/>
			<point x="495" y="441" type="curve" smooth="yes"/>
			<point x="590" y="441"/>
			<point x="653" y="361"/>
			<point x="653" y="246" type="curve" smooth="yes"/>
			<point x="653" y="131"/>
			<point x="590" y="51"/>
		</contour>
	</outline>
</glyph>
<glyph name="tshe" format="2">
	<unicode hex="045B"/>
	<advance width="589"/>
	<outline>
		<contour>
			<point x="85" y="0" type="line"/>
			<point x="162" y="0" type="line"/>
			<point x="162" y="221" type="line" smooth="yes"/>
			<point x="162" y="355"/>
			<point x="222" y="440"/>
			<point x="316" y="440" type="curve" smooth="yes"/>
			<point x="392" y="440"/>
			<point x="436" y="383"/>
			<point x="436" y="283" type="curve" smooth="yes"/>
			<point x="436" y="0" type="line"/>
			<point x="513" y="0" type="line"/>
			<point x="513" y="292" type="line" smooth="yes"/>
			<point x="513" y="429"/>
			<point x="446" y="508"/>
			<point x="331" y="508" type="curve" smooth="yes"/>
			<point x="233" y="508"/>
			<point x="167" y="448"/>
			<point x="149" y="342" type="curve"/>
			<point x="162" y="342" type="line"/>
			<point x="162" y="720" type="line"/>
			<point x="85" y="720" type="line"/>
		</contour>
		<contour>
			<point x="9" y="573" type="line"/>
			<point x="315" y="573" type="line"/>
			<point x="315" y="636" type="line"/>
			<point x="9" y="636" type="line"/>
		</contour>
	</outline>
</glyph>
<glyph name="Fita" format="2">
	<unicode hex="0472"/>
	<advance width="829"/>
	<outline>
		<contour>
			<point x="104" y="336" type="line"/>
			<point x="723" y="336" type="line"/>
			<point x="723" y="407" type="line"/>
			<point x="104" y="407" type="line"/>
		</contour>
		<contour>
			<point x="414" y="-16" type="curve" smooth="yes"/>
			<point x="615" y="-16"/>
			<point x="764" y="144"/>
			<point x="764" y="358" type="curve" smooth="yes"/>
			<point x="764" y="571"/>
			<point x="615" y="731"/>
			<point x="414" y="731" type="curve" smooth="yes"/>
			<point x="214" y="731"/>
			<point x="65" y="571"/>
			<point x="65" y="358" type="curve" smooth="yes"/>
			<point x="65" y="144"/>
			<point x="214" y="-16"/>
		</contour>
		<contour>
			<point x="414" y="56" type="curve" smooth="yes"/>
			<point x="257" y="56"/>
			<point x="146" y="183"/>
			<point x="146" y="358" type="curve" smooth="yes"/>
			<point x="146" y="533"/>
			<point x="257" y="659"/>
			<point x="414" y="659" type="curve" smooth="yes"/>
			<point x="572" y="659"/>
			<point x="683" y="533"/>
			<point x="683" y="358" type="curve" smooth="yes"/>
			<point x="683" y="183"/>
			<point x="572" y="56"/>
		</contour>
	</outline>
</glyph>
<glyph name="fita" format="2">
	<unicode hex="0473"/>
	<advance width="601"/>
	<outline>
		<contour>
			<point x="89" y="219" type="line"/>
			<point x="510" y="219" type="line"/>
			<point x="510" y="282" type="line"/>
			<point x="89" y="282" type="line"/>
		</contour>
		<contour>
			<point x="300" y="-16" type="curve" smooth="yes"/>
			<point x="444" y="-16"/>
			<point x="547" y="94"/>
			<point x="547" y="246" type="curve" smooth="yes"/>
			<point x="547" y="398"/>
			<point x="444" y="508"/>
			<point x="300" y="508" type="curve" smooth="yes"/>
			<point x="157" y="508"/>
			<point x="54" y="398"/>
			<point x="54" y="246" type="curve" smooth="yes"/>
			<point x="54" y="94"/>
			<point x="157" y="-16"/>
		</contour>
		<contour>
			<point x="300" y="51" type="curve" smooth="yes"/>
			<point x="201" y="51"/>
			<point x="133" y="132"/>
			<point x="133" y="246" type="curve" smooth="yes"/>
			<point x="133" y="361"/>
			<point x="201" y="441"/>
			<point x="300" y="441" type="curve" smooth="yes"/>
			<point x="400" y="441"/>
			<point x="468" y="361"/>
			<point x="468" y="246" type="curve" smooth="yes"/>
			<point x="468" y="132"/>
			<point x="400" y="51"/>
		</contour>
	</outline>
</glyph>
<glyph name="Izhitsa" format="2">
	<unicode hex="0474"/>
	<advance width="743"/>
	<outline>
		<contour>
			<point x="304" y="0" type="line"/>
			<point x="389" y="0" type="line"/>
			<point x="597" y="598" type="line" smooth="yes"/>
			<point x="609" y="633"/>
			<point x="622" y="644"/>
			<point x="647" y="644" type="curve" smooth="yes"/>
			<point x="698" y="644" type="line"/>
			<point x="698" y="715" type="line"/>
			<point x="633" y="715" type="line" smooth="yes"/>
			<point x="579" y="715"/>
			<point x="550" y="693"/>
			<point x="527" y="625" type="curve" smooth="yes"/>
			<point x="333" y="44" type="line"/>
			<point x="363" y="44" type="line"/>
			<point x="129" y="715" type="line"/>
			<point x="43" y="715" type="line"/>
		</contour>
	</outline>
</glyph>
<glyph name="izhitsa" format="2">
	<unicode hex="0475"/>
	<advance width="566"/>
	<outline>
		<contour>
			<point x="231" y="0" type="line"/>
			<point x="307" y="0" type="line"/>
			<point x="459" y="395" type="line" smooth="yes"/>
			<point x="468" y="418"/>
			<point x="478" y="426"/>
			<point x="497" y="426" type="curve" smooth="yes"/>
			<point x="544" y="426" type="line"/>
			<point x="544" y="492" type="line"/>
			<point x="488" y="492" type="line" smooth="yes"/>
			<point x="435" y="492"/>
			<point x="413" y="476"/>
			<point x="395" y="426" type="curve" smooth="yes"/>
			<point x="255" y="39" type="line"/>
			<point x="287" y="39" type="line"/>
			<point x="114" y="492" type="line"/>
			<point x="32" y="492" type="line"/>
		</contour>
	</outline>
</glyph>
<glyph name="quoteleft" format="2">
	<unicode hex="2018"/>
	<advance width="230"/>
	<outline>
		<contour>
			<point x="125" y="736" type="line"/>
			<point x="84" y="687"/>
			<point x="54" y="609"/>
			<point x="54" y="551" type="curve" smooth="yes"/>
			<point x="54" y="513"/>
			<point x="78" y="488"/>
			<point x="113" y="488" type="curve" smooth="yes"/>
			<point x="147" y="488"/>
			<point x="170" y="513"/>
			<point x="170" y="548" type="curve" smooth="yes"/>
			<point x="170" y="581"/>
			<point x="144" y="607"/>
			<point x="111" y="605" type="curve"/>
			<point x="120" y="586" type="line"/>
			<point x="116" y="624"/>
			<point x="138" y="685"/>
			<point x="176" y="736" type="curve"/>
		</contour>
	</outline>
</glyph>
<glyph name="liraturkish" format="2">
	<unicode hex="20BA"/>
	<advance width="632"/>
	<outline>
		<contour>
			<point x="135" y="0" type="line"/>
			<point x="279" y="0" type="line" smooth="yes"/>
			<point x="485" y="0"/>
			<point x="595" y="108"/>
			<point x="595" y="338" type="curve" smooth="yes"/>
			<point x="595" y="348" type="line"/>
			<point x="520" y="353" type="line"/>
			<point x="520" y="338" type="line" smooth="yes"/>
			<point x="520" y="151"/>
			<point x="436" y="66"/>
			<point x="279" y="66" type="curve" smooth="yes"/>
			<point x="212" y="66" type="line"/>
			<point x="212" y="715" type="line"/>
			<point x="135" y="715" type="line"/>
		</contour>
		<contour>
			<point x="396" y="376" type="line"/>
			<point x="396" y="444" type="line"/>
			<point x="33" y="281" type="line"/>
			<point x="33" y="213" type="line"/>
		</contour>
		<contour>
			<point x="396" y="540" type="line"/>
			<point x="396" y="608" type="line"/>
			<point x="33" y="445" type="line"/>
			<point x="33" y="377" type="line"/>
		</contour>
	</outline>
</glyph>
<glyph name="numero" format="2">
	<unicode hex="2116"/>
	<advance width="1175"/>
	<outline>
		<contour>
			<point x="786" y="231" type="line"/>
			<point x="1102" y="231" type="line"/>
			<point x="1102" y="290" type="line"/>
			<point x="786" y="290" type="line"/>
		</contour>
		<contour>
			<point x="944" y="344" type="curve" smooth="yes"/>
			<point x="1047" y="344"/>
			<point x="1121" y="421"/>
			<point x="1121" y="530" type="curve" smooth="yes"/>
			<point x="1121" y="638"/>
			<point x="1047" y="715"/>
			<point x="944" y="715" type="curve" smooth="yes"/>
			<point x="841" y="715"/>
			<point x="767" y="638"/>
			<point x="767" y="530" type="curve" smooth="yes"/>
			<point x="767" y="421"/>
			<point x="841" y="344"/>
		</contour>
		<contour>
			<point x="944" y="403" type="curve" smooth="yes"/>
			<point x="883" y="403"/>
			<point x="839" y="457"/>
			<point x="839" y="530" type="curve" smooth="yes"/>
			<point x="839" y="603"/>
			<point x="883" y="656"/>
			<point x="944" y="656" type="curve" smooth="yes"/>
			<point x="1006" y="656"/>
			<point x="1049" y="603"/>
			<point x="1049" y="530" type="curve" smooth="yes"/>
			<point x="1049" y="457"/>
			<point x="1006" y="403"/>
		</contour>
		<contour>
			<point x="106" y="0" type="line"/>
			<point x="183" y="0" type="line"/>
			<point x="183" y="629" type="line"/>
			<point x="162" y="629" type="line"/>
			<point x="568" y="0" type="line"/>
			<point x="654" y="0" type="line"/>
			<point x="654" y="715" type="line"/>
			<point x="577" y="715" type="line"/>
			<point x="577" y="85" type="line"/>
			<point x="597" y="85" type="line"/>
			<point x="192" y="715" type="line"/>
			<point x="106" y="715" type="line"/>
		</contour>
	</outline>
</glyph>
<glyph name="minus" format="2">
	<unicode hex="2212"/>
	<advance width="632"/>
	<outline>
		<contour>
			<point x="502" y="325" type="line"/>
			<point x="502" y="389" type="line"/>
			<point x="130" y="389" type="line"/>
			<point x="130" y="325" type="line"/>
		</contour>
	</outline>
</glyph>
<glyph name="che.loclBGR" format="2">
	<advance width="547"/>
	<outline>
		<contour>
			<point x="385" y="0" type="line"/>
			<point x="462" y="0" type="line"/>
			<point x="462" y="492" type="line"/>
			<point x="385" y="492" type="line"/>
		</contour>
		<contour>
			<point x="235" y="166" type="curve" smooth="yes"/>
			<point x="335" y="166"/>
			<point x="409" y="243"/>
			<point x="411" y="348" type="curve"/>
			<point x="390" y="377" type="line"/>
			<point x="381" y="295"/>
			<point x="319" y="233"/>
			<point x="248" y="233" type="curve" smooth="yes"/>
			<point x="172" y="233"/>
			<point x="131" y="285"/>
			<point x="131" y="380" type="curve" smooth="yes"/>
			<point x="131" y="492" type="line"/>
			<point x="54" y="492" type="line"/>
			<point x="54" y="372" type="line" smooth="yes"/>
			<point x="54" y="241"/>
			<point x="120" y="166"/>
		</contour>
	</outline>
</glyph>
<glyph name="circumflexcomb.cap" format="2">
	<outline>
		<contour>
			<point x="159" y="799" type="line"/>
			<point x="34" y="943" type="line"/>
			<point x="-34" y="943" type="line"/>
			<point x="-159" y="799" type="line"/>
			<point x="-84" y="799" type="line"/>
			<point x="37" y="927" type="line"/>
			<point x="-39" y="927" type="line"/>
			<point x="83" y="799" type="line"/>
		</contour>
	</outline>
	<anchor name="_top.UC" x="0" y="750"/>
	<anchor name="top.UC" x="156" y="863"/>
</glyph>
<glyph name="circumflexhookabovecomb.cap" format="2">
	<outline>
		<contour>
			<point x="-146" y="799" type="line"/>
			<point x="-71" y="799" type="line"/>
			<point x="36" y="907" type="line"/>
			<point x="-35" y="907" type="line"/>
			<point x="72" y="799" type="line"/>
			<point x="148" y="799" type="line"/>
			<point x="34" y="933" type="line"/>
			<point x="-33" y="933" type="line"/>
		</contour>
		<contour>
			<point x="143" y="855" type="line"/>
			<point x="206" y="881"/>
			<point x="241" y="922"/>
			<point x="241" y="968" type="curve" smooth="yes"/>
			<point x="241" y="1017"/>
			<point x="201" y="1055"/>
			<point x="145" y="1055" type="curve" smooth="yes"/>
			<point x="114" y="1055"/>
			<point x="86" y="1043"/>
			<point x="60" y="1020" type="curve"/>
			<point x="92" y="978" type="line"/>
			<point x="110" y="993"/>
			<point x="126" y="1001"/>
			<point x="143" y="1001" type="curve" smooth="yes"/>
			<point x="164" y="1001"/>
			<point x="179" y="988"/>
			<point x="179" y="965" type="curve" smooth="yes"/>
			<point x="179" y="939"/>
			<point x="158" y="917"/>
			<point x="122" y="898" type="curve"/>
		</contour>
	</outline>
	<anchor name="_top.UC" x="0" y="750"/>
</glyph>
<glyph name="circumflexhookabovecomb" format="2">
	<outline>
		<contour>
			<point x="-145" y="587" type="line"/>
			<point x="-78" y="587" type="line"/>
			<point x="29" y="699" type="line"/>
			<point x="-28" y="699" type="line"/>
			<point x="79" y="587" type="line"/>
			<point x="149" y="587" type="line"/>
			<point x="35" y="725" type="line"/>
			<point x="-32" y="725" type="line"/>
		</contour>
		<contour>
			<point x="140" y="647" type="line"/>
			<point x="203" y="672"/>
			<point x="237" y="711"/>
			<point x="237" y="754" type="curve" smooth="yes"/>
			<point x="237" y="801"/>
			<point x="196" y="838"/>
			<point x="141" y="838" type="curve" smooth="yes"/>
			<point x="112" y="838"/>
			<point x="83" y="827"/>
			<point x="59" y="804" type="curve"/>
			<point x="89" y="762" type="line"/>
			<point x="106" y="777"/>
			<point x="124" y="785"/>
			<point x="140" y="785" type="curve" smooth="yes"/>
			<point x="161" y="785"/>
			<point x="175" y="773"/>
			<point x="175" y="752" type="curve" smooth="yes"/>
			<point x="175" y="727"/>
			<point x="155" y="707"/>
			<point x="120" y="690" type="curve"/>
		</contour>
	</outline>
	<anchor name="_top.LC" x="0" y="544"/>
</glyph>
<glyph name="commaaboverightcomb.short" format="2">
	<outline>
		<contour>
			<point x="10" y="554" type="line"/>
			<point x="34" y="588"/>
			<point x="57" y="635"/>
			<point x="57" y="674" type="curve" smooth="yes"/>
			<point x="57" y="707"/>
			<point x="36" y="731"/>
			<point x="5" y="731" type="curve" smooth="yes"/>
			<point x="-22" y="731"/>
			<point x="-43" y="709"/>
			<point x="-43" y="682" type="curve" smooth="yes"/>
			<point x="-43" y="655"/>
			<point x="-19" y="633"/>
			<point x="11" y="633" type="curve"/>
			<point x="-7" y="654" type="line"/>
			<point x="-5" y="628"/>
			<point x="-22" y="589"/>
			<point x="-43" y="554" type="curve"/>
		</contour>
	</outline>
	<anchor name="_top_right.LC.short" x="0" y="540"/>
</glyph>
<glyph name="commabelowcomb.cap" format="2">
	<outline>
		<contour>
			<point x="2" y="-270" type="line"/>
			<point x="27" y="-235"/>
			<point x="49" y="-183"/>
			<point x="49" y="-144" type="curve" smooth="yes"/>
			<point x="49" y="-113"/>
			<point x="29" y="-90"/>
			<point x="-2" y="-90" type="curve" smooth="yes"/>
			<point x="-29" y="-90"/>
			<point x="-49" y="-111"/>
			<point x="-49" y="-136" type="curve" smooth="yes"/>
			<point x="-49" y="-162"/>
			<point x="-26" y="-182"/>
			<point x="2" y="-182" type="curve"/>
			<point x="-14" y="-163" type="line"/>
			<point x="-12" y="-190"/>
			<point x="-29" y="-234"/>
			<point x="-52" y="-270" type="curve"/>
		</contour>
	</outline>
	<anchor name="_bottom.UC" x="0" y="-50"/>
</glyph>
<glyph name="dieresiscomb.cap" format="2">
	<outline>
		<contour>
			<point x="100" y="811" type="curve" smooth="yes"/>
			<point x="130" y="811"/>
			<point x="154" y="835"/>
			<point x="154" y="865" type="curve" smooth="yes"/>
			<point x="154" y="896"/>
			<point x="130" y="920"/>
			<point x="100" y="920" type="curve" smooth="yes"/>
			<point x="70" y="920"/>
			<point x="46" y="896"/>
			<point x="46" y="865" type="curve" smooth="yes"/>
			<point x="46" y="835"/>
			<point x="70" y="811"/>
		</contour>
		<contour>
			<point x="-100" y="811" type="curve" smooth="yes"/>
			<point x="-70" y="811"/>
			<point x="-47" y="835"/>
			<point x="-47" y="865" type="curve" smooth="yes"/>
			<point x="-47" y="896"/>
			<point x="-70" y="920"/>
			<point x="-100" y="920" type="curve" smooth="yes"/>
			<point x="-131" y="920"/>
			<point x="-154" y="896"/>
			<point x="-154" y="865" type="curve" smooth="yes"/>
			<point x="-154" y="835"/>
			<point x="-131" y="811"/>
		</contour>
	</outline>
	<anchor name="_top.UC" x="0" y="750"/>
</glyph>
<glyph name="eight.dnom" format="2">
	<advance width="402"/>
	<outline>
		<contour>
			<point x="201" y="-9" type="curve" smooth="yes"/>
			<point x="290" y="-9"/>
			<point x="353" y="40"/>
			<point x="353" y="111" type="curve" smooth="yes"/>
			<point x="353" y="181"/>
			<point x="291" y="229"/>
			<point x="201" y="229" type="curve" smooth="yes"/>
			<point x="111" y="229"/>
			<point x="49" y="181"/>
			<point x="49" y="111" type="curve" smooth="yes"/>
			<point x="49" y="41"/>
			<point x="112" y="-9"/>
		</contour>
		<contour>
			<point x="201" y="201" type="curve" smooth="yes"/>
			<point x="281" y="201"/>
			<point x="338" y="246"/>
			<point x="338" y="308" type="curve" smooth="yes"/>
			<point x="338" y="370"/>
			<point x="279" y="417"/>
			<point x="201" y="417" type="curve" smooth="yes"/>
			<point x="123" y="417"/>
			<point x="64" y="370"/>
			<point x="64" y="308" type="curve" smooth="yes"/>
			<point x="64" y="246"/>
			<point x="121" y="201"/>
		</contour>
		<contour>
			<point x="201" y="48" type="curve" smooth="yes"/>
			<point x="152" y="48"/>
			<point x="117" y="75"/>
			<point x="117" y="113" type="curve" smooth="yes"/>
			<point x="117" y="153"/>
			<point x="151" y="183"/>
			<point x="201" y="183" type="curve" smooth="yes"/>
			<point x="252" y="183"/>
			<point x="285" y="153"/>
			<point x="285" y="114" type="curve" smooth="yes"/>
			<point x="285" y="75"/>
			<point x="250" y="48"/>
		</contour>
		<contour>
			<point x="201" y="240" type="curve" smooth="yes"/>
			<point x="162" y="240"/>
			<point x="132" y="267"/>
			<point x="132" y="301" type="curve" smooth="yes"/>
			<point x="132" y="335"/>
			<point x="158" y="360"/>
			<point x="201" y="360" type="curve" smooth="yes"/>
			<point x="243" y="360"/>
			<point x="270" y="335"/>
			<point x="270" y="302" type="curve" smooth="yes"/>
			<point x="270" y="267"/>
			<point x="240" y="240"/>
		</contour>
	</outline>
</glyph>
<glyph name="four.dnom" format="2">
	<advance width="413"/>
	<outline>
		<contour>
			<point x="317" y="0" type="line"/>
			<point x="317" y="97" type="line"/>
			<point x="376" y="97" type="line"/>
			<point x="376" y="154" type="line"/>
			<point x="317" y="154" type="line"/>
			<point x="317" y="408" type="line"/>
			<point x="251" y="408" type="line"/>
			<point x="41" y="154" type="line"/>
			<point x="41" y="97" type="line"/>
			<point x="251" y="97" type="line"/>
			<point x="251" y="0" type="line"/>
		</contour>
		<contour>
			<point x="251" y="327" type="line"/>
			<point x="251" y="154" type="line"/>
			<point x="112" y="154" type="line"/>
		</contour>
	</outline>
</glyph>
<glyph name="hard.loclBGR" format="2">
	<advance width="562"/>
	<outline>
		<contour>
			<point x="349" y="-16" type="curve" smooth="yes"/>
			<point x="462" y="-16"/>
			<point x="547" y="62"/>
			<point x="547" y="165" type="curve" smooth="yes"/>
			<point x="547" y="271"/>
			<point x="473" y="343"/>
			<point x="365" y="343" type="curve" smooth="yes"/>
			<point x="296" y="343"/>
			<point x="235" y="305"/>
			<point x="214" y="251" type="curve"/>
			<point x="225" y="251" type="line"/>
			<point x="225" y="492" type="line"/>
			<point x="40" y="492" type="line"/>
			<point x="40" y="427" type="line"/>
			<point x="168" y="427" type="line"/>
			<point x="148" y="448" type="line"/>
			<point x="148" y="179" type="line" smooth="yes"/>
			<point x="148" y="59"/>
			<point x="226" y="-16"/>
		</contour>
		<contour>
			<point x="347" y="51" type="curve" smooth="yes"/>
			<point x="277" y="51"/>
			<point x="228" y="97"/>
			<point x="228" y="163" type="curve" smooth="yes"/>
			<point x="228" y="229"/>
			<point x="277" y="276"/>
			<point x="347" y="276" type="curve" smooth="yes"/>
			<point x="417" y="276"/>
			<point x="467" y="232"/>
			<point x="467" y="163" type="curve" smooth="yes"/>
			<point x="467" y="94"/>
			<point x="418" y="51"/>
		</contour>
	</outline>
</glyph>
<glyph name="hookabovecomb.cap" format="2">
	<outline>
		<contour>
			<point x="-6" y="763" type="line"/>
			<point x="59" y="790"/>
			<point x="96" y="832"/>
			<point x="96" y="880" type="curve" smooth="yes"/>
			<point x="96" y="931"/>
			<point x="54" y="971"/>
			<point x="-5" y="971" type="curve" smooth="yes"/>
			<point x="-36" y="971"/>
			<point x="-66" y="959"/>
			<point x="-92" y="935" type="curve"/>
			<point x="-60" y="891" type="line"/>
			<point x="-41" y="907"/>
			<point x="-23" y="915"/>
			<point x="-7" y="915" type="curve" smooth="yes"/>
			<point x="16" y="915"/>
			<point x="31" y="901"/>
			<point x="31" y="877" type="curve" smooth="yes"/>
			<point x="31" y="850"/>
			<point x="11" y="827"/>
			<point x="-28" y="808" type="curve"/>
		</contour>
	</outline>
	<anchor name="_top.UC" x="0" y="750"/>
</glyph>
<glyph name="one.dnom" format="2">
	<advance width="357"/>
	<outline>
		<contour>
			<point x="182" y="411" type="line"/>
			<point x="78" y="326" type="line"/>
			<point x="78" y="254" type="line"/>
			<point x="172" y="331" type="line"/>
			<point x="172" y="0" type="line"/>
			<point x="240" y="0" type="line"/>
			<point x="240" y="411" type="line"/>
		</contour>
	</outline>
</glyph>
<glyph name="tildecomb.cap" format="2">
	<outline>
		<contour>
			<point x="110" y="911" type="line"/>
			<point x="105" y="873"/>
			<point x="85" y="856"/>
			<point x="66" y="856" type="curve" smooth="yes"/>
			<point x="51" y="856"/>
			<point x="39" y="865"/>
			<point x="13" y="884" type="curve" smooth="yes"/>
			<point x="-13" y="903"/>
			<point x="-39" y="915"/>
			<point x="-66" y="915" type="curve" smooth="yes"/>
			<point x="-108" y="915"/>
			<point x="-155" y="887"/>
			<point x="-167" y="823" type="curve"/>
			<point x="-111" y="799" type="line"/>
			<point x="-105" y="837"/>
			<point x="-86" y="854"/>
			<point x="-67" y="854" type="curve" smooth="yes"/>
			<point x="-52" y="854"/>
			<point x="-39" y="845"/>
			<point x="-13" y="826" type="curve" smooth="yes"/>
			<point x="13" y="807"/>
			<point x="39" y="795"/>
			<point x="65" y="795" type="curve" smooth="yes"/>
			<point x="107" y="795"/>
			<point x="154" y="823"/>
			<point x="166" y="887" type="curve"/>
		</contour>
	</outline>
	<anchor name="_top.UC" x="0" y="750"/>
</glyph>
<glyph name="tildecomb.narrow" format="2">
	<outline>
		<contour>
			<point x="91" y="720" type="line"/>
			<point x="87" y="677"/>
			<point x="72" y="657"/>
			<point x="56" y="657" type="curve" smooth="yes"/>
			<point x="44" y="657"/>
			<point x="33" y="665"/>
			<point x="11" y="686" type="curve" smooth="yes"/>
			<point x="-12" y="707"/>
			<point x="-36" y="720"/>
			<point x="-62" y="720" type="curve" smooth="yes"/>
			<point x="-97" y="720"/>
			<point x="-131" y="695"/>
			<point x="-142" y="622" type="curve"/>
			<point x="-91" y="597" type="line"/>
			<point x="-87" y="640"/>
			<point x="-73" y="660"/>
			<point x="-56" y="660" type="curve" smooth="yes"/>
			<point x="-45" y="660"/>
			<point x="-34" y="652"/>
			<point x="-12" y="631" type="curve" smooth="yes"/>
			<point x="11" y="610"/>
			<point x="35" y="597"/>
			<point x="61" y="597" type="curve" smooth="yes"/>
			<point x="96" y="597"/>
			<point x="130" y="622"/>
			<point x="141" y="695" type="curve"/>
		</contour>
	</outline>
	<anchor name="_top.LC" x="0" y="544"/>
</glyph>
<glyph name="ze.loclBGR" format="2">
	<advance width="514"/>
	<outline>
		<contour>
			<point x="233" y="-210" type="curve" smooth="yes"/>
			<point x="372" y="-210"/>
			<point x="458" y="-130"/>
			<point x="458" y="-1" type="curve" smooth="yes"/>
			<point x="458" y="92"/>
			<point x="406" y="160"/>
			<point x="320" y="179" type="curve"/>
			<point x="322" y="163" type="line"/>
			<point x="396" y="178"/>
			<point x="445" y="243"/>
			<point x="445" y="327" type="curve" smooth="yes"/>
			<point x="445" y="438"/>
			<point x="364" y="508"/>
			<point x="237" y="508" type="curve" smooth="yes"/>
			<point x="146" y="508"/>
			<point x="83" y="479"/>
			<point x="29" y="412" type="curve"/>
			<point x="84" y="362" type="line"/>
			<point x="118" y="414"/>
			<point x="169" y="441"/>
			<point x="232" y="441" type="curve" smooth="yes"/>
			<point x="314" y="441"/>
			<point x="364" y="396"/>
			<point x="364" y="323" type="curve" smooth="yes"/>
			<point x="364" y="250"/>
			<point x="314" y="199"/>
			<point x="243" y="199" type="curve" smooth="yes"/>
			<point x="143" y="199" type="line"/>
			<point x="143" y="134" type="line"/>
			<point x="242" y="134" type="line" smooth="yes"/>
			<point x="328" y="134"/>
			<point x="377" y="87"/>
			<point x="377" y="5" type="curve" smooth="yes"/>
			<point x="377" y="-90"/>
			<point x="326" y="-143"/>
			<point x="233" y="-143" type="curve" smooth="yes"/>
			<point x="163" y="-143"/>
			<point x="114" y="-118"/>
			<point x="74" y="-63" type="curve"/>
			<point x="20" y="-115" type="line"/>
			<point x="69" y="-177"/>
			<point x="143" y="-210"/>
		</contour>
	</outline>
</glyph>
